General
Complete name                            : The Sheltering Sky [1990] DVDRip XviD - CODY.avi
Format                                   : AVI
Format/Info                              : Audio Video Interleave
File size                                : 1.34 GiB
Duration                                 : 2h 12mn
Overall bit rate                         : 1 447 Kbps
Writing application                      : VirtualDubMod 1.5.10.3 | www.virtualdub-fr.org || (build 2550/release)
Writing library                          : VirtualDubMod build 2550/release

Video
ID                                       : 0
Format                                   : MPEG-4 Visual
Format profile                           : Advanced Simple@L5
Format settings, BVOP                    : 2
Format settings, QPel                    : No
Format settings, GMC                     : No warppoints
Format settings, Matrix                  : Default (H.263)
Codec ID                                 : XVID
Codec ID/Hint                            : XviD
Duration                                 : 2h 12mn
Bit rate                                 : 1 309 Kbps
Width                                    : 720 pixels
Height                                   : 392 pixels
Display aspect ratio                     : 16:9
Frame rate                               : 25.000 fps
Color space                              : YUV
Chroma subsampling                       : 4:2:0
Bit depth                                : 8 bits
Scan type                                : Progressive
Compression mode                         : Lossy
Bits/(Pixel*Frame)                       : 0.185
Stream size                              : 1.21 GiB (90%)
Writing library                          : XviD 1.2.1 (UTC 2008-12-04)

Audio
ID                                       : 1
Format                                   : MPEG Audio
Format version                           : Version 1
Format profile                           : Layer 3
Codec ID                                 : 55
Codec ID/Hint                            : MP3
Duration                                 : 2h 12mn
Bit rate mode                            : Constant
Bit rate                                 : 128 Kbps
Channel(s)                               : 2 channels
Sampling rate                            : 48.0 KHz
Compression mode                         : Lossy
Stream size                              : 121 MiB (9%)
Alignment                                : Aligned on interleaves
Interleave, duration                     : 40 ms (1.00 video frame)
Interleave, preload duration             : 504 ms




IMDB link:                                 http://www.imdb.com/title/tt0100594/




Subtitles included                       : Romanian




Please seed at least 1,5:1 . This way this torrent has a chance to survive !




Thanks . Enjoy !!!